<mxfile host="app.diagrams.net" modified="2024-05-16T14:54:01.174Z" agent="Mozilla/5.0 (Windows NT 10.0; Win64; x64) AppleWebKit/537.36 (KHTML, like Gecko) Chrome/124.0.0.0 Safari/537.36" etag="4J-RNI3FES_cUQVzR-rt" version="24.4.0" type="github">
  <diagram name="페이지-1" id="L7chTeokHGX2xdchUK-z">
    <mxGraphModel dx="1050" dy="522" grid="1" gridSize="10" guides="1" tooltips="1" connect="1" arrows="1" fold="1" page="1" pageScale="1" pageWidth="827" pageHeight="1169" math="0" shadow="0">
      <root>
        <mxCell id="0" />
        <mxCell id="1" parent="0" />
        <mxCell id="cKHNLAHdaUZ6bZbwGvSb-1" value="user" style="shape=umlActor;verticalLabelPosition=bottom;verticalAlign=top;html=1;" vertex="1" parent="1">
          <mxGeometry x="80" y="470" width="30" height="60" as="geometry" />
        </mxCell>
        <mxCell id="cKHNLAHdaUZ6bZbwGvSb-8" value="boardservice" style="shape=umlFrame;whiteSpace=wrap;html=1;pointerEvents=0;width=120;height=45;" vertex="1" parent="1">
          <mxGeometry x="170" y="385" width="700" height="455" as="geometry" />
        </mxCell>
        <mxCell id="cKHNLAHdaUZ6bZbwGvSb-28" style="rounded=0;orthogonalLoop=1;jettySize=auto;html=1;endArrow=none;endFill=0;" edge="1" parent="1" source="cKHNLAHdaUZ6bZbwGvSb-9" target="cKHNLAHdaUZ6bZbwGvSb-1">
          <mxGeometry relative="1" as="geometry" />
        </mxCell>
        <mxCell id="cKHNLAHdaUZ6bZbwGvSb-9" value="sign in" style="rounded=1;whiteSpace=wrap;html=1;arcSize=40;fontColor=#000000;fillColor=#ffffc0;strokeColor=#ff0000;" vertex="1" parent="1">
          <mxGeometry x="250" y="470" width="120" height="40" as="geometry" />
        </mxCell>
        <mxCell id="cKHNLAHdaUZ6bZbwGvSb-39" value="include" style="edgeStyle=orthogonalEdgeStyle;rounded=1;orthogonalLoop=1;jettySize=auto;html=1;exitX=1;exitY=0.25;exitDx=0;exitDy=0;entryX=0;entryY=1;entryDx=0;entryDy=0;curved=0;dashed=1;" edge="1" parent="1" source="cKHNLAHdaUZ6bZbwGvSb-11" target="cKHNLAHdaUZ6bZbwGvSb-13">
          <mxGeometry relative="1" as="geometry">
            <Array as="points">
              <mxPoint x="370" y="550" />
              <mxPoint x="520" y="550" />
            </Array>
          </mxGeometry>
        </mxCell>
        <mxCell id="cKHNLAHdaUZ6bZbwGvSb-11" value="read board" style="rounded=1;whiteSpace=wrap;html=1;arcSize=40;fontColor=#000000;fillColor=#ffffc0;strokeColor=#ff0000;" vertex="1" parent="1">
          <mxGeometry x="250" y="545" width="120" height="40" as="geometry" />
        </mxCell>
        <mxCell id="cKHNLAHdaUZ6bZbwGvSb-31" style="edgeStyle=orthogonalEdgeStyle;rounded=0;orthogonalLoop=1;jettySize=auto;html=1;exitX=0;exitY=0.5;exitDx=0;exitDy=0;endArrow=none;endFill=0;" edge="1" parent="1" source="cKHNLAHdaUZ6bZbwGvSb-12" target="cKHNLAHdaUZ6bZbwGvSb-1">
          <mxGeometry relative="1" as="geometry" />
        </mxCell>
        <mxCell id="cKHNLAHdaUZ6bZbwGvSb-12" value="read writing" style="rounded=1;whiteSpace=wrap;html=1;arcSize=40;fontColor=#000000;fillColor=#ffffc0;strokeColor=#ff0000;" vertex="1" parent="1">
          <mxGeometry x="250" y="630" width="120" height="40" as="geometry" />
        </mxCell>
        <mxCell id="cKHNLAHdaUZ6bZbwGvSb-34" value="include" style="edgeStyle=orthogonalEdgeStyle;rounded=0;orthogonalLoop=1;jettySize=auto;html=1;exitX=1;exitY=0.25;exitDx=0;exitDy=0;entryX=0.5;entryY=0;entryDx=0;entryDy=0;dashed=1;" edge="1" parent="1" source="cKHNLAHdaUZ6bZbwGvSb-13" target="cKHNLAHdaUZ6bZbwGvSb-14">
          <mxGeometry relative="1" as="geometry" />
        </mxCell>
        <mxCell id="cKHNLAHdaUZ6bZbwGvSb-13" value="login" style="rounded=1;whiteSpace=wrap;html=1;arcSize=40;fontColor=#000000;fillColor=#ffffc0;strokeColor=#ff0000;" vertex="1" parent="1">
          <mxGeometry x="520" y="410" width="120" height="40" as="geometry" />
        </mxCell>
        <mxCell id="cKHNLAHdaUZ6bZbwGvSb-14" value="autorization" style="rounded=1;whiteSpace=wrap;html=1;arcSize=40;fontColor=#000000;fillColor=#ffffc0;strokeColor=#ff0000;" vertex="1" parent="1">
          <mxGeometry x="730" y="440" width="120" height="40" as="geometry" />
        </mxCell>
        <mxCell id="cKHNLAHdaUZ6bZbwGvSb-33" value="extend" style="edgeStyle=orthogonalEdgeStyle;rounded=0;orthogonalLoop=1;jettySize=auto;html=1;exitX=0;exitY=0.5;exitDx=0;exitDy=0;entryX=1;entryY=0.75;entryDx=0;entryDy=0;dashed=1;" edge="1" parent="1" source="cKHNLAHdaUZ6bZbwGvSb-15" target="cKHNLAHdaUZ6bZbwGvSb-13">
          <mxGeometry relative="1" as="geometry" />
        </mxCell>
        <mxCell id="cKHNLAHdaUZ6bZbwGvSb-15" value="fail to login" style="rounded=1;whiteSpace=wrap;html=1;arcSize=40;fontColor=#000000;fillColor=#ffffc0;strokeColor=#ff0000;" vertex="1" parent="1">
          <mxGeometry x="730" y="545" width="120" height="40" as="geometry" />
        </mxCell>
        <mxCell id="cKHNLAHdaUZ6bZbwGvSb-41" value="extends" style="edgeStyle=orthogonalEdgeStyle;rounded=0;orthogonalLoop=1;jettySize=auto;html=1;exitX=0;exitY=0.5;exitDx=0;exitDy=0;entryX=1;entryY=0.5;entryDx=0;entryDy=0;dashed=1;" edge="1" parent="1" source="cKHNLAHdaUZ6bZbwGvSb-16" target="cKHNLAHdaUZ6bZbwGvSb-11">
          <mxGeometry relative="1" as="geometry" />
        </mxCell>
        <mxCell id="cKHNLAHdaUZ6bZbwGvSb-16" value="sort" style="rounded=1;whiteSpace=wrap;html=1;arcSize=40;fontColor=#000000;fillColor=#ffffc0;strokeColor=#ff0000;" vertex="1" parent="1">
          <mxGeometry x="530" y="592.5" width="120" height="40" as="geometry" />
        </mxCell>
        <mxCell id="cKHNLAHdaUZ6bZbwGvSb-42" value="extends" style="edgeStyle=orthogonalEdgeStyle;rounded=0;orthogonalLoop=1;jettySize=auto;html=1;exitX=0;exitY=0.5;exitDx=0;exitDy=0;entryX=1;entryY=1;entryDx=0;entryDy=0;dashed=1;" edge="1" parent="1" source="cKHNLAHdaUZ6bZbwGvSb-17" target="cKHNLAHdaUZ6bZbwGvSb-11">
          <mxGeometry relative="1" as="geometry" />
        </mxCell>
        <mxCell id="cKHNLAHdaUZ6bZbwGvSb-17" value="search" style="rounded=1;whiteSpace=wrap;html=1;arcSize=40;fontColor=#000000;fillColor=#ffffc0;strokeColor=#ff0000;" vertex="1" parent="1">
          <mxGeometry x="530" y="660" width="120" height="40" as="geometry" />
        </mxCell>
        <mxCell id="cKHNLAHdaUZ6bZbwGvSb-44" value="extends" style="edgeStyle=orthogonalEdgeStyle;rounded=0;orthogonalLoop=1;jettySize=auto;html=1;exitX=0;exitY=0.5;exitDx=0;exitDy=0;dashed=1;" edge="1" parent="1" source="cKHNLAHdaUZ6bZbwGvSb-18" target="cKHNLAHdaUZ6bZbwGvSb-12">
          <mxGeometry relative="1" as="geometry" />
        </mxCell>
        <mxCell id="cKHNLAHdaUZ6bZbwGvSb-18" value="read,write,delete" style="rounded=1;whiteSpace=wrap;html=1;arcSize=40;fontColor=#000000;fillColor=#ffffc0;strokeColor=#ff0000;" vertex="1" parent="1">
          <mxGeometry x="520" y="780" width="120" height="40" as="geometry" />
        </mxCell>
        <mxCell id="cKHNLAHdaUZ6bZbwGvSb-45" style="edgeStyle=orthogonalEdgeStyle;rounded=0;orthogonalLoop=1;jettySize=auto;html=1;exitX=0;exitY=0.5;exitDx=0;exitDy=0;entryX=0.75;entryY=1;entryDx=0;entryDy=0;dashed=1;" edge="1" parent="1" source="cKHNLAHdaUZ6bZbwGvSb-19" target="cKHNLAHdaUZ6bZbwGvSb-12">
          <mxGeometry relative="1" as="geometry" />
        </mxCell>
        <mxCell id="cKHNLAHdaUZ6bZbwGvSb-19" value="comment read,write,delete" style="rounded=1;whiteSpace=wrap;html=1;arcSize=40;fontColor=#000000;fillColor=#ffffc0;strokeColor=#ff0000;" vertex="1" parent="1">
          <mxGeometry x="670" y="780" width="120" height="40" as="geometry" />
        </mxCell>
        <mxCell id="cKHNLAHdaUZ6bZbwGvSb-30" style="edgeStyle=orthogonalEdgeStyle;rounded=0;orthogonalLoop=1;jettySize=auto;html=1;exitX=0;exitY=0.5;exitDx=0;exitDy=0;entryX=1;entryY=1;entryDx=0;entryDy=0;entryPerimeter=0;endArrow=none;endFill=0;" edge="1" parent="1" source="cKHNLAHdaUZ6bZbwGvSb-11" target="cKHNLAHdaUZ6bZbwGvSb-1">
          <mxGeometry relative="1" as="geometry" />
        </mxCell>
        <mxCell id="cKHNLAHdaUZ6bZbwGvSb-37" style="edgeStyle=orthogonalEdgeStyle;rounded=0;orthogonalLoop=1;jettySize=auto;html=1;exitX=0;exitY=0.5;exitDx=0;exitDy=0;entryX=0.5;entryY=0;entryDx=0;entryDy=0;entryPerimeter=0;endArrow=none;endFill=0;" edge="1" parent="1" source="cKHNLAHdaUZ6bZbwGvSb-13" target="cKHNLAHdaUZ6bZbwGvSb-1">
          <mxGeometry relative="1" as="geometry" />
        </mxCell>
        <mxCell id="cKHNLAHdaUZ6bZbwGvSb-40" value="include" style="edgeStyle=orthogonalEdgeStyle;rounded=0;orthogonalLoop=1;jettySize=auto;html=1;entryX=0.063;entryY=0.94;entryDx=0;entryDy=0;entryPerimeter=0;dashed=1;" edge="1" parent="1" source="cKHNLAHdaUZ6bZbwGvSb-12" target="cKHNLAHdaUZ6bZbwGvSb-13">
          <mxGeometry relative="1" as="geometry">
            <Array as="points">
              <mxPoint x="520" y="650" />
              <mxPoint x="520" y="448" />
            </Array>
          </mxGeometry>
        </mxCell>
      </root>
    </mxGraphModel>
  </diagram>
</mxfile>
